<svg xmlns="http://www.w3.org/2000/svg" width="59.8" height="51.288" viewBox="0 0 59.8 51.288"><defs><style>.a{opacity:0.21;}.b{fill:#707070;}</style></defs><g class="a" transform="translate(0.001 0.001)"><path class="b" d="M1.026,39.339l13.5-13.5a1.843,1.843,0,0,1,2.607,0L27.086,35.8,42.671,20.213a1.845,1.845,0,0,1,2.605,0l13.5,13.5H59.8V2.183A2.186,2.186,0,0,0,57.617,0H2.184A2.186,2.186,0,0,0,0,2.183V39.339ZM27.085,11.19a5.974,5.974,0,1,1-5.974,5.974,5.982,5.982,0,0,1,5.974-5.974Zm0,0" transform="translate(-0.001 0)"/><path class="b" d="M213.22,130.757a2.47,2.47,0,1,0-2.47-2.47A2.473,2.473,0,0,0,213.22,130.757Zm0,0" transform="translate(-186.135 -111.122)"/><path class="b" d="M58.048,217.676a1.748,1.748,0,0,1-1.239-.513L43.974,204.327,28.388,219.914a1.843,1.843,0,0,1-2.607,0l-9.955-9.955L2.991,222.792a1.748,1.748,0,0,1-1.239.513H0v6.261a2.186,2.186,0,0,0,2.184,2.184H57.616a2.186,2.186,0,0,0,2.184-2.184V217.676Zm0,0" transform="translate(0 -180.463)"/></g></svg>