<svg xmlns="http://www.w3.org/2000/svg" width="20.542" height="17.617" viewBox="0 0 20.542 17.617"><defs><style>.a{opacity:0.47;}.b{fill:#707070;}</style></defs><g class="a" transform="translate(0.001 0.001)"><path class="b" d="M.353,13.512,4.989,8.876a.633.633,0,0,1,.9,0L9.3,12.3l5.354-5.354a.634.634,0,0,1,.895,0l4.637,4.637h.352V.749a.751.751,0,0,0-.75-.75H.75A.751.751,0,0,0,0,.749V13.512ZM9.3,3.843A2.052,2.052,0,1,1,7.252,5.9,2.055,2.055,0,0,1,9.3,3.843Zm0,0" transform="translate(-0.001)"/><path class="b" d="M211.6,127.513a.849.849,0,1,0-.848-.848A.85.85,0,0,0,211.6,127.513Zm0,0" transform="translate(-202.295 -120.769)"/><path class="b" d="M19.939,208.913a.6.6,0,0,1-.426-.176L15.1,204.327l-5.354,5.354a.633.633,0,0,1-.9,0l-3.42-3.42L1.027,210.67a.6.6,0,0,1-.426.176H0V213a.751.751,0,0,0,.75.75H19.791a.751.751,0,0,0,.75-.75v-4.084Zm0,0" transform="translate(0 -196.131)"/></g></svg>